<?xml version="1.0" encoding="UTF-8" standalone="no"?><!DOCTYPE svg PUBLIC "-//W3C//DTD SVG 1.1//EN" "http://www.w3.org/Graphics/SVG/1.1/DTD/svg11.dtd"><svg width="100%" height="100%" viewBox="0 0 1366 556" version="1.1" xmlns="http://www.w3.org/2000/svg" xmlns:xlink="http://www.w3.org/1999/xlink" xml:space="preserve" xmlns:serif="http://www.serif.com/" style="fill-rule:evenodd;clip-rule:evenodd;stroke-linejoin:round;stroke-miterlimit:1.41421;"><path d="M1039.4,282.439c-1.619,3.162 -3.661,6.105 -5.449,9.202c-3.33,6.372 -8.364,11.603 -12.56,17.468c-2.429,2.654 -5.034,5.161 -7.526,7.787l-3.732,3.963l-4.196,3.464l-8.413,6.985l-9.216,5.956c-2.972,2.182 -6.288,3.773 -9.625,5.329c-3.337,1.549 -6.554,3.422 -10.004,4.767c-6.977,2.203 -14.159,5.414 -20.889,6.378c-3.542,0.676 -6.541,1.704 -10.547,2.232l-12.842,1.141l-5.231,0.458l-5.984,0.035c-3.985,0.112 -8.02,-0.134 -12.047,-0.282c-32.323,-1.507 -65.328,-9.329 -97.855,-20.086c-8.357,-2.774 -16.708,-5.767 -25.05,-8.914c2.288,-0.492 4.59,-0.992 6.878,-1.485c16.538,-3.964 33.316,-8.378 49.509,-13.961c16.277,-5.513 32.245,-11.969 47.755,-19.404c15.454,-7.625 30.246,-16.602 43.996,-26.986c10.505,-7.998 20.101,-17.165 28.521,-27.191c26.754,14.102 54.015,27.332 82.409,38.075c1.268,0.458 2.542,0.88 3.809,1.331l-1.711,3.738Zm-409.263,-81.162c-9.287,-30.19 -27.648,-53.705 -48.896,-70.525c-21.15,-16.932 -46.58,-25.782 -70.004,-26.88c-23.501,-1.43 -44.608,4.872 -61.393,13.468c-7.54,3.9 -14.172,8.357 -20.15,13.039c-14.116,-8.955 -27.993,-18.186 -42.144,-26.881c-7.393,-4.745 -15.018,-9.173 -22.551,-13.693c-6.076,-3.781 -12.152,-7.372 -18.242,-10.906c11.188,-11.469 23.896,-21.579 37.836,-29.725c16.869,-9.8 35.294,-17.094 54.458,-21.431c4.788,-1.106 9.596,-2.091 14.496,-2.64l7.301,-1.021c2.007,-0.282 4.915,-0.366 7.322,-0.563c10.265,-0.944 19.946,-0.782 29.718,-0.613c39.674,2.183 78.417,13.504 115.274,29.021c25.564,11.018 50.319,23.98 74.812,37.638c-6.582,9.216 -11.292,17.897 -14.447,25.064c-1.598,4.028 -3.365,7.407 -4.231,10.589c-0.915,3.147 -1.69,5.795 -2.309,7.928c-1.232,4.238 -1.866,6.428 -1.866,6.428l3.654,1.091c0,0 0.901,-2.035 2.64,-5.97c0.859,-1.95 1.929,-4.379 3.204,-7.266c1.218,-2.894 3.358,-5.914 5.357,-9.49c4.014,-6.773 9.639,-14.87 17.257,-23.206c7.688,4.351 15.362,8.744 23.029,13.187c35.231,20.206 70.426,40.229 105.481,59.802c32.745,18.277 65.216,36.399 97.356,54.338c-5.527,6.133 -11.533,12.047 -18.172,17.594c-11.258,9.308 -23.895,17.679 -37.385,25.388c-13.637,7.534 -28.155,14.201 -43.144,20.46c-25.458,10.328 -52.086,19.713 -79.22,29.408c-12.926,-5.534 -25.81,-11.293 -38.588,-17.348c-24.304,-11.419 -48.249,-24.022 -71.891,-37.392c2.654,-20.276 1.155,-40.609 -4.562,-58.893m-23.001,42.897c-56.416,-33.308 -110.98,-70.172 -165.325,-105.874c4.485,-2.655 9.188,-5.168 14.377,-7.287c15.432,-6.154 33.97,-10.308 53.493,-7.703c19.376,2.408 39.378,10.786 56.528,25.769c17.038,14.651 31,35.941 37.519,59.386c3.168,11.427 4.224,23.487 3.408,35.709m-9.85,40.969c-1.366,3.14 -2.732,6.315 -4.372,9.371c-0.782,1.542 -1.563,3.098 -2.464,4.59l-1.296,2.267l-0.563,0.979c-0.021,0.035 -0.007,0.021 -0.042,0.063l-0.409,0.606c-2.189,3.231 -4.393,6.477 -6.604,9.737c-1.105,1.774 -2.217,3.098 -3.309,4.273l-3.266,3.788c-8.942,10.117 -20.2,20.213 -33.041,27.275c-25.571,14.482 -56.831,22.241 -88.711,19.185c-15.897,-1.239 -31.879,-4.865 -47.157,-10.948l-5.696,-2.4l-2.865,-1.183l-0.718,-0.296c-0.739,-0.366 0.197,0.176 -0.176,-0.035l-1.507,-0.789c-3.95,-2.105 -8.146,-4.203 -11.926,-6.343l-10.139,-6.477l-10.117,-7.703c-26.374,-21.551 -47.234,-52.113 -57.422,-86.992c-5.119,-17.404 -7.625,-35.822 -6.97,-54.36c0.486,-18.361 4.9,-37.511 11.708,-54.838c6.393,-16.538 15.771,-31.957 27.275,-45.763c14.982,7.618 29.281,15.933 43.778,24.628c13.158,7.899 26.282,16.038 39.25,24.522c-3.534,3.379 -6.836,6.801 -9.666,10.251c-2.154,2.921 -4.224,5.738 -6.21,8.441c-2.02,2.661 -3.358,5.64 -4.949,8.244c-3.274,5.175 -5.069,10.498 -6.984,15.039c-3.218,9.441 -4.957,16.946 -5.358,21.769c-0.655,4.907 -0.993,7.442 -0.993,7.442l3.492,0.683c0,0 0.641,-2.471 1.887,-7.266c1.035,-4.949 3.555,-11.567 7.512,-19.805c4.26,-8.202 10.35,-17.89 19.65,-27.331c3.647,-3.541 7.857,-7.04 12.37,-10.434c57.099,37.744 112.5,79.917 170.148,119.724c0.704,0.492 1.429,0.964 2.14,1.45c-1.612,6.266 -3.696,12.504 -6.28,18.636m131.735,-216.586c23.705,-14.793 56.161,-26.283 94.124,-30.035c0.127,0.035 0.204,0.155 0.345,0.162c0,0 4.245,0.317 12.208,0.908c7.928,0.62 19.573,1.464 33.879,3.738c14.207,2.331 31.407,6.274 47.558,15.398c3.964,2.366 7.857,5.006 11.526,8.054c1.865,1.472 3.217,3.077 4.921,4.541c1.647,1.465 3.745,4.049 5.639,6.062l0.733,0.81l0.183,0.204c0.464,0.486 -0.423,-0.436 -0.282,-0.274l0.275,0.38l1.105,1.52l2.246,3.042c1.302,2.197 2.767,4.295 3.964,6.611c2.436,4.597 4.569,9.498 6.23,14.722c6.921,20.783 6.914,46.094 -1.612,70.137c-0.81,2.464 -2.45,5.787 -3.619,8.667c-1.26,2.999 -2.478,6.041 -4.245,8.829c-0.366,0.675 -0.732,1.358 -1.098,2.034c-33.781,-17.826 -67.941,-35.85 -102.383,-54.021c-35.569,-18.637 -71.553,-37.146 -107.797,-55.585c-5.189,-2.619 -10.448,-5.203 -15.686,-7.808c3.682,-2.767 7.533,-5.491 11.786,-8.096m292.595,49.769c2.021,2.591 3.71,5.428 5.604,8.131c1.866,2.718 3.746,5.443 5.302,8.386l4.977,8.66l4.021,8.603c0.675,1.471 1.38,2.781 2.048,4.379l1.944,5.309l1.957,5.329l0.978,2.669l0.388,1.049c-0.071,-0.183 -0.12,-0.296 0.014,0.133l0.155,0.613l2.464,9.829c0.809,3.28 1.866,6.533 2.098,9.934c0.76,6.744 2.168,13.475 1.844,20.354c0.015,3.428 0.162,6.864 0.106,10.307l-1.098,10.3l-0.472,5.175c-0.268,1.711 -0.704,3.401 -1.035,5.104l-0.218,1.049c-0.951,-0.324 -1.915,-0.612 -2.866,-0.936c-25.162,-8.885 -50.163,-20.178 -75.248,-32.59c4.287,-8.111 7.906,-16.51 10.61,-25.17c9.751,-31.464 7.294,-64.428 -3.999,-91.118c-2.795,-6.71 -6.414,-12.934 -10.308,-18.728c-1.316,-1.978 -2.767,-3.837 -4.217,-5.682c20.727,12.181 39.638,28.803 54.951,48.911m342.344,10.87l-0.282,-5.864c-0.267,-3.936 -0.838,-9.371 -1.598,-13.546c-0.76,-4.344 -1.662,-8.618 -2.873,-12.793c-9.462,-33.463 -31.055,-60.942 -57.626,-77.438c-3.253,-2.176 -6.731,-3.936 -10.131,-5.752l-1.282,-0.676l-1.112,-0.535l-0.591,-0.254l-2.359,-1.028c-1.633,-0.683 -2.978,-1.351 -4.837,-2.041c-7.906,-2.859 -15.073,-4.901 -22.487,-5.9c-14.729,-2.373 -29.281,-1.521 -42.729,1.478c-26.972,5.816 -49.593,21.058 -63.998,39.138c-15.306,19.059 -21.325,40.701 -21.396,59.957c-0.134,9.631 1.359,18.65 3.591,26.789c2.189,8.167 5.287,15.468 8.843,21.833c6.864,12.75 15.545,22.128 23.24,28.281c7.78,6.231 14.63,9.625 19.249,11.695c4.668,2.006 7.16,2.766 7.16,2.766l1.31,-3.309c0,0 -2.31,-0.992 -6.499,-3.365c-4.139,-2.429 -10.201,-6.322 -16.714,-12.842c-6.526,-6.526 -13.574,-15.383 -18.805,-27.648c-5.365,-11.955 -8.695,-27.099 -7.202,-43.545c1.506,-16.243 8.357,-34.217 21.142,-48.009c13.476,-14.553 32.563,-25.283 54.543,-28.831c10.913,-1.76 22.459,-1.725 33.703,0.817c5.66,1.028 11.286,3.217 16.073,5.118c1.303,0.521 2.992,1.436 4.478,2.14l2.302,1.134l0.577,0.281c0.648,0.317 -0.218,-0.119 0.036,0.036l0.971,0.584c2.591,1.57 5.252,3.034 7.71,4.879c20.213,13.778 36.04,36.449 42.116,62.245c0.831,3.211 1.394,6.477 1.851,9.765c0.458,3.443 0.669,5.766 0.838,9.603l0.085,5.872l-0.275,4.569c-0.127,3.394 -0.697,6.795 -1.176,10.202c-2.295,13.616 -7.209,27.176 -14.433,39.884c-7.195,12.589 -16.664,24.846 -27.436,34.914c-11.314,10.793 -24.304,19.094 -38.188,26.395c-14.081,6.935 -29.5,11.532 -45.503,14.701c-16.136,2.774 -32.928,3.808 -50.065,3.316c-17.164,-0.909 -34.575,-3.225 -52.043,-6.844c-3.351,-0.767 -6.716,-1.591 -10.082,-2.415c4.893,-23.606 4.823,-47.882 0.634,-70.609c-0.479,-4.308 -1.81,-8.406 -2.915,-12.539c-1.148,-4.111 -2.295,-8.216 -3.443,-12.307l-0.218,-0.76c0.183,0.444 -0.486,-1.478 -0.514,-1.514l-0.521,-1.323l-1.035,-2.654l-2.077,-5.281l-2.063,-5.266c-0.809,-1.852 -1.837,-3.879 -2.753,-5.801c-1.915,-3.873 -3.823,-7.731 -5.723,-11.575c-2.113,-3.506 -4.211,-7.005 -6.309,-10.483c-1.992,-3.542 -4.372,-6.816 -6.787,-10.026c-2.429,-3.21 -4.668,-6.541 -7.23,-9.575c-20.298,-24.55 -44.658,-43.771 -70.398,-57.042c-25.712,-13.405 -52.417,-21.495 -78.206,-25.205c-6.456,-0.887 -12.807,-1.845 -19.15,-2.112c-3.161,-0.19 -6.294,-0.387 -9.413,-0.577c-3.098,0 -6.175,0 -9.23,0c-5.647,-0.099 -11.849,0.281 -17.953,0.697c-6.133,0.246 -11.843,1.133 -17.538,1.816c-22.734,3.049 -43.511,8.885 -61.802,16.44c-18.235,7.624 -34.329,16.432 -47.108,26.845c-5.97,4.626 -11.229,9.385 -15.974,14.151c-27.275,-13.299 -55.163,-25.972 -84.05,-36.462c-38.983,-14.138 -80.275,-23.931 -122.033,-24.142c-41.355,-0.493 -83.788,8.878 -119.153,30.182c-15.447,9.287 -29.711,20.446 -42.2,33.323c-28.275,-16.264 -56.733,-31.95 -86.88,-44.017c-31.915,-13.011 -66.244,-21.882 -101.453,-20.917c-4.387,0.295 -8.766,0.591 -13.131,0.88c-4.351,0.528 -8.681,1.33 -13.018,1.999c-4.28,0.507 -8.786,1.915 -13.208,3.056c-4.449,1.19 -9.033,2.358 -12.433,3.865l-5.527,2.14l-2.76,1.063l-1.38,0.528l-0.69,0.268c-1.739,0.774 -0.908,0.429 -1.485,0.704c-3.957,2.028 -7.9,4.048 -11.828,6.062c-3.753,2.302 -7.414,4.745 -11.103,7.139c-3.619,2.471 -6.9,5.372 -10.336,8.061c-26.275,22.882 -43.482,54.339 -48.354,87.105c-2.295,16.397 -1.563,33.013 2.049,48.678c1.486,7.66 4.71,15.961 7.752,23.508c1.556,3.063 3.104,6.111 4.646,9.139l1.627,3.126l1.584,2.436l3.175,4.844c8.702,12.687 19.509,23.55 31.57,31.978c12.151,8.314 25.381,14.292 38.842,17.939c13.447,3.837 27.296,4.569 40.391,3.365c13.166,-1.021 25.628,-4.766 36.794,-9.857c2.767,-1.351 5.505,-2.696 8.23,-4.027c2.676,-1.704 5.33,-3.386 7.956,-5.062l3.879,-2.534l3.028,-2.493c2.006,-1.661 3.999,-3.302 5.963,-4.935l1.26,-1.056l0.746,-0.789l1.486,-1.57l2.936,-3.126c1.915,-2.091 3.943,-4.034 5.456,-6.393c3.274,-4.498 6.499,-8.871 8.773,-13.686c10.053,-18.742 12.996,-38.406 11.44,-55.31c-1.422,-16.975 -6.484,-31.478 -12.926,-42.736c-6.752,-11.131 -14.109,-19.368 -20.952,-24.93c-6.949,-5.52 -12.842,-9.146 -16.729,-10.808c-3.914,-1.915 -5.942,-2.9 -5.942,-2.9l-1.922,3.295c0,0 1.859,1.274 5.45,3.738c3.823,2.373 8.441,6.414 13.883,12.215c5.45,5.936 11.181,14.102 15.856,24.572c4.28,10.624 7.512,23.571 7.139,38.046c-0.282,14.391 -4.204,30.282 -13.356,44.306c-2.056,3.654 -4.929,6.801 -7.71,10.075c-1.267,1.739 -3.027,3.07 -4.625,4.548l-2.443,2.204l-1.218,1.112l-0.401,0.367c-0.05,0.042 -0.085,0.063 -0.057,0.042l-0.394,0.274c-2.077,1.493 -4.175,2.993 -6.287,4.513l-3.183,2.296l-2.9,1.52c-1.908,1.049 -3.837,2.105 -5.78,3.168c-2.183,0.888 -4.38,1.789 -6.597,2.69c-17.771,7.118 -38.998,7.815 -59.225,1.654c-10.082,-3.203 -19.882,-8.138 -28.767,-14.742c-8.843,-6.703 -16.426,-15.271 -22.706,-24.91l-2.316,-3.668l-1.07,-1.675l-0.212,-0.437l-0.556,-1.147c-1.478,-3.063 -2.971,-6.14 -4.464,-9.23c-1.731,-5.33 -3.654,-9.97 -4.738,-16.137c-2.436,-11.652 -2.774,-24.001 -0.831,-36.343c4.161,-24.621 16.919,-49.087 36.864,-67.181c2.577,-2.14 4.985,-4.541 7.703,-6.547l8.315,-5.865l8.92,-5.048c-0.148,0.042 1.112,-0.542 -0.19,0.007l0.683,-0.296l1.351,-0.584l2.718,-1.176l5.435,-2.358c3.816,-1.803 6.907,-2.732 10.103,-3.774c3.239,-1.021 6.281,-2.337 9.949,-2.999c3.541,-0.775 7.075,-1.711 10.673,-2.401l10.99,-1.479c14.813,-1.387 30.211,-1.098 45.792,0.958c15.594,2.042 31.295,5.956 46.967,10.744c15.7,4.745 31.231,10.919 46.706,17.692c12.652,5.464 24.98,11.554 37.378,17.954c-11.645,14.031 -21.417,29.556 -28.781,46.122c-1.021,2.337 -2.112,4.625 -3.063,7.005l-2.556,7.329l-2.527,7.337l-1.838,7.117l-1.816,7.097c-0.711,2.957 -0.972,5.126 -1.479,7.731c-0.929,4.998 -1.851,10.004 -2.147,15.073c-2.007,20.193 -0.563,40.61 3.872,60.204c8.928,39.187 29.521,75.291 58.577,102.178l11.286,9.61c4.182,2.986 8.343,5.957 12.497,8.921c4.006,2.555 7.829,4.724 11.736,7.097l1.458,0.866c0.105,0.084 1.57,0.837 1.344,0.711l0.824,0.401l3.309,1.591l6.625,3.14c17.876,7.836 36.745,12.814 55.719,14.926c18.988,2.204 38.096,0.979 56.338,-2.978c18.242,-3.922 35.723,-10.575 51.388,-19.932c3.83,-2.485 7.639,-4.949 11.434,-7.413c3.541,-2.817 7.069,-5.626 10.582,-8.421c3.612,-2.675 6.526,-6.139 9.772,-9.159l4.717,-4.704l4.429,-5.35l4.351,-5.365c1.506,-1.817 2.865,-3.577 3.823,-5.175c2.154,-3.302 4.308,-6.576 6.449,-9.843l1.232,-1.936l0.781,-1.408l1.556,-2.816c1.063,-1.859 2,-3.781 2.936,-5.696c1.936,-3.795 3.577,-7.709 5.189,-11.609c1.633,-4.133 3.056,-8.336 4.323,-12.575c24.782,16.25 50.191,31.64 76.347,45.679c-23.966,9.709 -47.432,20.938 -68.335,36.223c-3.316,2.774 -6.858,5.245 -10.061,8.139c-3.133,2.985 -6.379,5.858 -9.392,8.948l-8.364,9.949l-7.322,10.751c-4.309,7.589 -8.329,16.172 -10.61,23.55l-2.007,5.717l-1.619,6.892c-0.796,4.281 -1.422,8.59 -1.816,12.941c-1.373,17.355 1.555,35.16 9.18,51.043c3.95,7.991 8.583,15.137 15.025,22.016c5.766,6.083 12.884,11.666 20.241,15.933c14.877,8.519 31.739,12.715 48.15,11.905c8.195,-0.373 16.271,-1.873 23.867,-4.45c3.577,-1.119 8.048,-3.14 11.413,-4.843l4.231,-2.373l0.817,-0.479l0.303,-0.204l0.605,-0.401l1.204,-0.803l2.387,-1.612c24.592,-18.27 36.153,-46.369 34.188,-70.834c-0.126,-2.957 -0.683,-6.231 -1.267,-9.357c-0.267,-1.711 -0.655,-2.549 -0.971,-3.844l-0.493,-1.768l-0.254,-0.88c-0.26,-1.035 -0.126,-0.429 -0.211,-0.725l-0.092,-0.246l-0.19,-0.5c-1.95,-5.309 -4.344,-10.167 -7.146,-14.461c-5.484,-8.688 -12.335,-15.172 -19.129,-19.798c-13.63,-9.462 -26.634,-11.617 -34.949,-11.948c-4.266,-0.07 -7.596,0.148 -9.561,0.493c-2.048,0.282 -3.112,0.43 -3.112,0.43c-0.725,0.098 -1.323,0.668 -1.422,1.429c-0.126,0.915 0.514,1.753 1.429,1.873c0,0 1.064,0.147 3.119,0.415c2.141,0.211 4.922,0.845 8.526,1.901c7.217,2.098 17.616,6.639 27.071,16.214c4.605,4.809 9.132,10.645 12.18,17.742c1.584,3.506 2.732,7.315 3.527,11.272c0.127,1.021 0.845,4.696 0.93,6.442c0.028,1.83 0.183,3.605 0.007,5.837c-0.753,16.735 -10.695,36.188 -28.141,47.22c-16.616,11.413 -41.602,11.694 -63.209,0.88c-5.464,-2.675 -10.406,-5.879 -15.285,-10.307c-4.218,-3.619 -8.801,-8.688 -12.279,-14.088c-7.245,-10.899 -12.053,-24.48 -13.116,-38.948c-0.24,-3.612 -0.275,-7.266 -0.05,-10.941l0.275,-2.746l0.134,-1.373l0.07,-0.697l0.035,-0.345c-0.049,0.113 0.148,-0.746 -0.091,0.169l1.246,-5.928c1.345,-8.42 4.161,-14.736 7.209,-21.72c1.915,-3.337 3.711,-6.787 5.731,-10.131l7.315,-9.237c2.676,-2.901 5.591,-5.618 8.386,-8.463c2.823,-2.83 6.23,-5.069 9.37,-7.575c23.699,-17.313 52.607,-27.015 82.043,-34.062c21.6,10.828 43.679,20.72 66.42,29.169c34.076,12.679 69.729,22.262 106.657,25.197c4.618,0.324 9.216,0.719 13.869,0.747l6.963,0.162c0.796,-0.014 -0.57,0.07 2.014,-0.036l0.803,-0.049l1.619,-0.091l3.217,-0.198l12.87,-0.788c4.499,-0.444 9.829,-1.612 14.687,-2.457c10.279,-1.472 18.897,-5.006 28.105,-7.822c4.478,-1.641 8.731,-3.858 13.082,-5.794c4.358,-1.944 8.667,-3.971 12.623,-6.619l12.096,-7.484c3.781,-2.823 7.442,-5.808 11.145,-8.73l5.499,-4.421l4.991,-4.957c3.26,-3.358 6.611,-6.639 9.737,-10.089c5.59,-7.434 11.899,-14.348 16.341,-22.466c2.352,-3.957 4.914,-7.801 7.027,-11.863l4.801,-10.307c4.612,1.211 9.244,2.344 13.891,3.379c19.312,4.069 38.842,6.752 58.443,7.815c19.657,0.612 39.342,-0.387 58.662,-3.865c19.199,-4.098 37.948,-10.089 55.211,-18.988c16.968,-9.16 33.076,-20.178 46.221,-33.147c13.856,-13.454 24.867,-28.275 33.442,-44.637c8.519,-16.263 14.278,-33.815 16.665,-51.698c0.493,-4.478 1.035,-8.941 1.084,-13.426l0.078,-3.359l0.035,-1.668l0.021,-0.838l-0.035,-1.352Z" style="fill-rule:nonzero;"/></svg>